<svg width="168" height="32" viewBox="0 0 168 32" fill="none" xmlns="http://www.w3.org/2000/svg">
<g clip-path="url(#clip0_1_352)">
<mask id="mask0_1_352" style="mask-type:luminance" maskUnits="userSpaceOnUse" x="0" y="0" width="168" height="32">
<path d="M168 0H0V32H168V0Z" fill="white"/>
</mask>
<g mask="url(#mask0_1_352)">
<path d="M28.6889 14.4271L20.4488 31.5894C20.2633 31.9741 19.7285 31.9991 19.5074 31.6358L16.0595 25.9447H22.2065C22.6238 25.9447 22.8805 25.4924 22.663 25.1362L19.1403 19.3169L21.358 14.6942C21.8108 13.747 21.1227 12.6535 20.0708 12.6535H10.2941L6.76758 6.83065C6.55011 6.47452 6.80675 6.02222 7.22402 6.02222H23.3902C27.7152 6.02222 30.5572 10.5309 28.6889 14.4271Z" fill="url(#paint0_linear_1_352)"/>
<path d="M22.2056 25.944H6.03934C1.71425 25.944 -1.12738 21.4352 0.744534 17.539L8.98446 0.376763C9.16627 -0.00437102 9.7047 -0.0328685 9.92217 0.330435L13.37 6.0215H7.22318C6.80591 6.0215 6.54927 6.4738 6.76675 6.82994L10.2931 12.6528H10.2895L8.07174 17.2755C7.6188 18.2192 8.30704 19.3161 9.3589 19.3161H19.1391L22.662 25.1355C22.8795 25.4917 22.6227 25.944 22.2056 25.944Z" fill="url(#paint1_linear_1_352)"/>
<path d="M45.272 25.6505V7.7699H57.1647C58.5192 7.7699 59.6931 7.96335 60.6864 8.35026C61.6978 8.71874 62.4834 9.30832 63.0433 10.119C63.6032 10.9112 63.8831 11.9337 63.8831 13.1866C63.8831 14.0341 63.7386 14.7526 63.4497 15.3422C63.1607 15.9318 62.7543 16.4108 62.2306 16.7793C61.7249 17.1478 61.1379 17.4334 60.4697 17.636C59.8015 17.8203 59.0881 17.94 58.3296 17.9953L57.9503 17.7742C59.2145 17.7926 60.253 17.9032 61.0657 18.1058C61.8784 18.2901 62.4834 18.6401 62.8808 19.156C63.2962 19.6535 63.5038 20.3996 63.5038 21.3946V25.6505H59.9008V21.6433C59.9008 20.9616 59.7834 20.4365 59.5486 20.068C59.3139 19.6811 58.8894 19.414 58.2754 19.2666C57.6794 19.1192 56.8125 19.0455 55.6747 19.0455H48.875V25.6505H45.272ZM48.875 16.1713H57.1647C58.1761 16.1713 58.9436 15.9226 59.4674 15.4251C60.0092 14.9277 60.2801 14.2552 60.2801 13.4077C60.2801 12.597 60.0092 11.9798 59.4674 11.5561C58.9436 11.1323 58.1761 10.9204 57.1647 10.9204H48.875V16.1713Z" fill="#111827"/>
<path d="M79.6565 21.0906H83.0699C82.9254 22.0302 82.5371 22.8685 81.905 23.6055C81.291 24.3424 80.4512 24.9228 79.3856 25.3465C78.32 25.7703 77.0197 25.9822 75.4846 25.9822C73.7689 25.9822 72.2518 25.7058 70.9334 25.1531C69.615 24.5819 68.5855 23.7621 67.8451 22.6935C67.1046 21.6249 66.7344 20.3352 66.7344 18.8244C66.7344 17.3136 67.0956 16.0239 67.818 14.9553C68.5404 13.8683 69.5427 13.0392 70.825 12.468C72.1254 11.8969 73.6424 11.6113 75.3762 11.6113C77.1461 11.6113 78.618 11.8969 79.792 12.468C80.9659 13.0392 81.8328 13.9051 82.3926 15.0659C82.9706 16.2082 83.2144 17.6729 83.1241 19.46H70.2832C70.3735 20.1601 70.6264 20.7958 71.0417 21.3669C71.4752 21.9381 72.0531 22.3895 72.7755 22.7211C73.516 23.0527 74.3919 23.2185 75.4033 23.2185C76.523 23.2185 77.4532 23.0251 78.1936 22.6382C78.9522 22.2329 79.4398 21.717 79.6565 21.0906ZM75.2137 14.3473C73.9133 14.3473 72.8568 14.6421 72.0441 15.2317C71.2314 15.8028 70.7076 16.5122 70.4728 17.3597H79.6294C79.5391 16.4385 79.1057 15.7107 78.3291 15.1764C77.5705 14.6237 76.5321 14.3473 75.2137 14.3473Z" fill="#111827"/>
<path d="M101.999 20.2338C101.908 21.4314 101.529 22.4632 100.861 23.3291C100.211 24.195 99.3077 24.8583 98.1519 25.3189C96.996 25.7611 95.6234 25.9822 94.0341 25.9822C92.3726 25.9822 90.8826 25.715 89.5642 25.1807C88.2639 24.628 87.2344 23.8265 86.4759 22.7764C85.7354 21.7078 85.3652 20.3904 85.3652 18.8244C85.3652 17.2583 85.7354 15.941 86.4759 14.8724C87.2344 13.8038 88.2639 12.9931 89.5642 12.4404C90.8826 11.8877 92.3726 11.6113 94.0341 11.6113C95.6234 11.6113 96.987 11.8416 98.1248 12.3022C99.2626 12.7444 100.157 13.3893 100.807 14.2368C101.475 15.0843 101.863 16.1068 101.972 17.3044H98.7479C98.4408 16.3832 97.872 15.6646 97.0412 15.1488C96.2104 14.6329 95.2081 14.3749 94.0341 14.3749C93.095 14.3749 92.2371 14.5408 91.4605 14.8724C90.702 15.204 90.088 15.7015 89.6184 16.3648C89.1669 17.0096 88.9411 17.8295 88.9411 18.8244C88.9411 19.8009 89.1669 20.6207 89.6184 21.284C90.0699 21.9289 90.684 22.4171 91.4605 22.7487C92.2371 23.0619 93.095 23.2185 94.0341 23.2185C95.2984 23.2185 96.3278 22.9606 97.1225 22.4447C97.9352 21.9289 98.486 21.1919 98.775 20.2338H101.999Z" fill="#111827"/>
<path d="M117.157 25.6505V18.1058C117.157 17.3504 117.031 16.724 116.778 16.2266C116.525 15.7291 116.119 15.3514 115.559 15.0935C115.017 14.8356 114.286 14.7066 113.364 14.7066C112.479 14.7066 111.676 14.8816 110.953 15.2317C110.231 15.5633 109.644 16.0055 109.193 16.5582C108.741 17.0925 108.488 17.6637 108.434 18.2717L108.407 16.7517C108.497 16.1437 108.705 15.5357 109.03 14.9277C109.355 14.3197 109.789 13.767 110.33 13.2695C110.872 12.772 111.522 12.3759 112.281 12.0811C113.057 11.7679 113.924 11.6113 114.882 11.6113C115.712 11.6113 116.48 11.7219 117.184 11.943C117.889 12.1456 118.503 12.468 119.026 12.9102C119.55 13.3524 119.956 13.9051 120.245 14.5684C120.534 15.2132 120.679 15.9778 120.679 16.8622V25.6505H117.157ZM105.102 25.6505V6.38806H108.624V25.6505H105.102Z" fill="#111827"/>
<path d="M130.706 25.9545C129.37 25.9545 128.151 25.6597 127.049 25.0702C125.966 24.4622 125.099 23.6239 124.448 22.5553C123.816 21.4682 123.5 20.2154 123.5 18.7967C123.5 17.3412 123.825 16.0792 124.476 15.0106C125.126 13.942 126.002 13.1129 127.103 12.5233C128.223 11.9153 129.487 11.6113 130.896 11.6113C132.449 11.6113 133.695 11.9337 134.634 12.5786C135.592 13.205 136.287 14.0617 136.72 15.1488C137.154 16.2358 137.371 17.4518 137.371 18.7967C137.371 19.6074 137.244 20.4365 136.991 21.284C136.738 22.1131 136.35 22.8869 135.826 23.6055C135.303 24.3056 134.616 24.8767 133.768 25.3189C132.919 25.7427 131.898 25.9545 130.706 25.9545ZM131.844 23.1909C132.91 23.1909 133.831 23.0067 134.607 22.6382C135.384 22.2697 135.98 21.7538 136.395 21.0906C136.811 20.4273 137.018 19.6627 137.018 18.7967C137.018 17.8571 136.802 17.0649 136.368 16.42C135.953 15.7568 135.357 15.2593 134.58 14.9277C133.822 14.5776 132.91 14.4026 131.844 14.4026C130.345 14.4026 129.18 14.8079 128.349 15.6186C127.519 16.4108 127.103 17.4702 127.103 18.7967C127.103 19.6811 127.302 20.4549 127.699 21.1182C128.097 21.763 128.647 22.2697 129.352 22.6382C130.074 23.0067 130.905 23.1909 131.844 23.1909ZM137.018 11.9153H140.54V25.6505H137.262C137.262 25.6505 137.235 25.4755 137.181 25.1254C137.145 24.757 137.109 24.2964 137.073 23.7436C137.036 23.1909 137.018 22.6474 137.018 22.1131V11.9153Z" fill="#111827"/>
<path d="M148.035 5.89062V9.04116H143.944V5.89062H148.035ZM144.215 11.9153H147.737V25.6505H144.215V11.9153Z" fill="#111827"/>
<path d="M151.518 11.9153H155.04V25.6505H151.518V11.9153ZM161.298 11.6113C162.129 11.6113 162.896 11.7219 163.601 11.943C164.305 12.164 164.919 12.5049 165.443 12.9655C165.966 13.4261 166.373 14.0157 166.662 14.7342C166.951 15.4343 167.095 16.2726 167.095 17.2491V25.6505H163.573V17.8848C163.573 16.724 163.293 15.8765 162.734 15.3422C162.192 14.7895 161.298 14.5131 160.052 14.5131C159.113 14.5131 158.264 14.6974 157.505 15.0659C156.747 15.4343 156.133 15.9042 155.663 16.4753C155.193 17.028 154.923 17.6084 154.85 18.2164L154.823 16.8069C154.913 16.1621 155.121 15.5357 155.446 14.9277C155.771 14.3197 156.205 13.767 156.747 13.2695C157.306 12.7536 157.966 12.3483 158.724 12.0535C159.483 11.7587 160.341 11.6113 161.298 11.6113Z" fill="#111827"/>
</g>
</g>
<defs>
<linearGradient id="paint0_linear_1_352" x1="19.875" y1="31.8937" x2="32.5831" y2="6.02222" gradientUnits="userSpaceOnUse">
<stop stop-color="#2A98F2"/>
<stop offset="0.717" stop-color="#78C2FF"/>
</linearGradient>
<linearGradient id="paint1_linear_1_352" x1="9.81327" y1="-1.5383" x2="-2.89502" y2="25.9438" gradientUnits="userSpaceOnUse">
<stop stop-color="#548BFF"/>
<stop offset="1" stop-color="#0854F4"/>
</linearGradient>
<clipPath id="clip0_1_352">
<rect width="168" height="32" fill="white"/>
</clipPath>
</defs>
</svg>
