<svg width="208" height="20" viewBox="0 0 208 20" fill="none" xmlns="http://www.w3.org/2000/svg">
<path d="M3.41903 18.5459C2.01568 18.1792 0.876167 17.6899 0 17.0777L1.70951 13.2481C2.53276 13.7898 3.48878 14.2273 4.57683 14.5584C5.66343 14.8916 6.73392 15.0572 7.78618 15.0572C9.78473 15.0572 10.7847 14.5584 10.7847 13.5627C10.7847 13.0383 10.5007 12.6486 9.92974 12.3948C9.36022 12.1414 8.44437 11.8754 7.18127 11.5955C5.79523 11.2981 4.63743 10.978 3.70884 10.638C2.77833 10.2962 1.98008 9.74945 1.3134 8.99735C0.647201 8.24702 0.314341 7.2321 0.314341 5.95509C0.314341 4.83563 0.620505 3.82601 1.23644 2.92527C1.84853 2.0238 2.7663 1.31179 3.9847 0.787317C5.20383 0.263082 6.69809 0 8.47011 0C9.67991 0 10.8726 0.135739 12.0476 0.40673C13.223 0.677481 14.257 1.07485 15.1516 1.60028L13.5474 5.45628C11.7937 4.51236 10.0923 4.03993 8.44414 4.03993C7.40927 4.03993 6.65504 4.19341 6.18292 4.49918C5.70817 4.80494 5.47055 5.20303 5.47055 5.69297C5.47055 6.18196 5.75194 6.54959 6.31208 6.79444C6.87486 7.03905 7.77703 7.29301 9.02187 7.55514C10.4262 7.85249 11.5875 8.17125 12.5082 8.51268C13.4294 8.85327 14.2259 9.39619 14.9015 10.1391C15.5771 10.8828 15.9165 11.8919 15.9165 13.1687C15.9165 14.2706 15.6084 15.2673 14.9951 16.1597C14.3808 17.0518 13.4597 17.7648 12.2324 18.2969C11.0048 18.8305 9.51323 19.0975 7.75989 19.0975C6.26902 19.0969 4.82262 18.9135 3.41903 18.5459Z" fill="black"/>
<path d="M35.8763 0V19.2117H30.7405V11.7186H23.7373V19.2117H18.6025V0H23.7373V7.2178H30.7405V0H35.8763Z" fill="black"/>
<path d="M50.3681 0H45.2739L37.2051 19.2117H42.4802L47.7823 5.95854L53.0856 19.2117H58.4652L50.3681 0Z" fill="black"/>
<path d="M49.6393 14.5253C49.6393 15.5919 48.8166 16.4555 47.8035 16.4555C46.7904 16.4555 45.9678 15.5919 45.9678 14.5253C45.9678 13.4615 46.7904 12.5966 47.8035 12.5966C48.8166 12.5969 49.6393 13.4615 49.6393 14.5253Z" fill="black"/>
<path fill-rule="evenodd" clip-rule="evenodd" d="M80.3955 13.9406C80.3955 12.7894 80.0774 11.8052 79.4473 10.9911C78.8117 10.1773 77.9395 9.57824 76.82 9.19385C77.6583 8.77388 78.3038 8.2023 78.7618 7.47797C79.2182 6.75639 79.4473 5.93747 79.4473 5.0227C79.4473 3.48571 78.7925 2.26384 77.4915 1.3581C76.1876 0.452616 74.2888 0 71.7916 0H61.793V19.2117H72.351C74.958 19.2117 76.9497 18.754 78.3276 17.8392C79.7055 16.925 80.3955 15.6256 80.3955 13.9406ZM67.2678 7.62902V3.92503H71.0651C72.9288 3.92503 73.8596 4.53697 73.8596 5.7636C73.8596 7.00754 72.9291 7.62902 71.0651 7.62902H67.2678ZM71.9039 11.39C73.8409 11.39 74.8105 12.0398 74.8105 13.3382C74.8105 14.638 73.8409 15.2869 71.9039 15.2866H67.2678V11.39H71.9039Z" fill="#008AFB"/>
<path d="M122.916 17.1798C123.757 17.7958 124.851 18.2879 126.199 18.6568C127.546 19.0266 128.936 19.2112 130.365 19.2117C132.049 19.2117 133.481 18.9432 134.66 18.4064C135.839 17.8711 136.721 17.1538 137.314 16.2564C137.901 15.3586 138.196 14.356 138.196 13.2475C138.196 11.9631 137.871 10.9479 137.224 10.1998C136.575 9.45236 135.809 8.90621 134.925 8.56363C134.041 8.22013 132.925 7.89945 131.577 7.60032C130.384 7.33663 129.514 7.08115 128.976 6.83508C128.438 6.58876 128.168 6.21893 128.168 5.72702C128.168 5.23415 128.396 4.83367 128.85 4.52608C129.305 4.21849 130.028 4.06409 131.023 4.06409C132.605 4.06409 134.239 4.53935 135.923 5.48891L137.463 1.60986C136.605 1.08128 135.61 0.681533 134.483 0.409162C133.354 0.13655 132.209 0 131.047 0C129.347 0 127.911 0.264655 126.74 0.792027C125.571 1.31964 124.692 2.0359 124.102 2.94276C123.512 3.84889 123.218 4.86455 123.218 5.99071C123.218 7.27536 123.538 8.29636 124.177 9.05122C124.816 9.80778 125.584 10.3578 126.476 10.7016C127.367 11.0437 128.48 11.3658 129.812 11.6649C131.023 11.9464 131.902 12.214 132.45 12.469C132.997 12.7242 133.271 13.1163 133.271 13.6439C133.271 14.6455 132.312 15.1473 130.391 15.1473C129.381 15.1473 128.354 14.9806 127.31 14.6455C126.265 14.3124 125.347 13.8724 124.556 13.3274L122.916 17.1798Z" fill="#008AFB"/>
<path d="M88.4652 0H93.5593L101.656 19.2117H96.2751L90.9727 5.95854L85.6718 19.2117H80.3955L88.4652 0Z" fill="#008AFB"/>
<path d="M101.656 19.2117L109.725 0H114.82L122.915 19.2117H117.535L112.234 5.95854L106.933 19.2117H101.656Z" fill="#008AFB"/>
<path d="M90.8689 16.4561C91.8817 16.4561 92.7047 15.5925 92.7047 14.5259C92.7047 13.4621 91.8809 12.5975 90.8689 12.5973C89.8553 12.5973 89.0322 13.4621 89.0322 14.5259C89.0322 15.5925 89.8553 16.4561 90.8689 16.4561Z" fill="#008AFB"/>
<path d="M114.042 14.4041C114.042 15.4707 113.219 16.3343 112.205 16.3343C111.192 16.3343 110.369 15.4707 110.369 14.4041C110.369 13.3403 111.192 12.4755 112.205 12.4755C113.219 12.4757 114.042 13.3403 114.042 14.4041Z" fill="#008AFB"/>
<path fill-rule="evenodd" clip-rule="evenodd" d="M148.067 19.0592V0H156.597C158.303 0 159.77 0.28135 160.996 0.844052C162.24 1.40675 163.2 2.22357 163.875 3.29451C164.55 4.3473 164.888 5.59977 164.888 7.0519C164.888 8.48586 164.55 9.72924 163.875 10.782C163.2 11.8348 162.24 12.6516 160.996 13.2325C159.77 13.7952 158.303 14.0765 156.597 14.0765H153.345V19.0592H148.067ZM153.345 9.82907H156.278C157.38 9.82907 158.197 9.58408 158.73 9.09395C159.281 8.60382 159.557 7.92319 159.557 7.0519C159.557 6.16247 159.281 5.47271 158.73 4.98261C158.197 4.49252 157.38 4.24747 156.278 4.24747H153.345V9.82907Z" fill="black"/>
<path d="M173.681 0H178.65L187.06 19.0592H181.643L176.303 6.43717L170.965 19.0592H165.652L173.681 0Z" fill="black"/>
<path d="M176.166 16.3909C177.326 16.3909 178.268 15.4525 178.268 14.2935C178.268 13.1376 177.326 12.1982 176.166 12.1979C175.005 12.1979 174.063 13.1376 174.063 14.2935C174.063 15.4525 175.005 16.3909 176.166 16.3909Z" fill="black"/>
<path d="M195.174 12.2444V19.2117H200.624V12.3296L208 0H202.715L198.136 7.62335L193.577 0H187.825L195.174 12.2444Z" fill="black"/>
</svg>
