<svg width="88" height="20" viewBox="0 0 88 20" fill="none" xmlns="http://www.w3.org/2000/svg">
<g clip-path="url(#clip0_35_186)">
<path d="M77.167 11.206H85.167C85.1881 10.6898 85.1007 10.1749 84.9103 9.6946C84.72 9.21429 84.431 8.77927 84.062 8.41765C83.693 8.05602 83.2523 7.77584 82.7683 7.59521C82.2842 7.41457 81.7677 7.33751 81.252 7.369C80.7316 7.35086 80.2128 7.43595 79.7255 7.61934C79.2382 7.80274 78.792 8.08081 78.4127 8.43753C78.0333 8.79425 77.7284 9.22254 77.5155 9.6977C77.3026 10.1729 77.1858 10.6855 77.172 11.206H77.167ZM74.379 12.578C74.379 8.194 77.029 5.178 81.328 5.178C85.6 5.179 88 7.972 88 12.3C88 12.682 88 13.095 87.973 13.313H77.167C77.221 15.671 78.601 17.808 81.386 17.808C82.1968 17.8718 83.005 17.6565 83.6765 17.1977C84.3481 16.739 84.8426 16.0644 85.078 15.286H87.808C87.089 17.974 85.023 20 81.328 20C76.863 20 74.383 16.851 74.379 12.578ZM58.035 19.591V2.6H51.666V0H67.466V2.6H61.1V19.591H58.035ZM35.535 11.206H43.535C43.5561 10.6898 43.4687 10.1749 43.2783 9.6946C43.088 9.21429 42.799 8.77927 42.43 8.41765C42.061 8.05602 41.6203 7.77584 41.1363 7.59521C40.6522 7.41457 40.1357 7.33751 39.62 7.369C39.0996 7.35086 38.5808 7.43595 38.0935 7.61934C37.6062 7.80274 37.16 8.08081 36.7807 8.43753C36.4013 8.79425 36.0964 9.22254 35.8835 9.6977C35.6706 10.1729 35.5538 10.6855 35.54 11.206H35.535ZM32.75 12.578C32.75 8.194 35.4 5.178 39.699 5.178C43.972 5.178 46.371 7.972 46.371 12.302C46.371 12.684 46.371 13.097 46.344 13.315H35.538C35.596 15.673 36.972 17.81 39.757 17.81C40.569 17.8753 41.3789 17.6607 42.052 17.2019C42.7252 16.7431 43.221 16.0677 43.457 15.288H46.187C45.463 17.974 43.394 20 39.7 20C35.231 20 32.751 16.851 32.747 12.578H32.75ZM24.37 7.506C22.055 7.506 20.57 8.906 20.57 11.015V19.591H17.87V0H20.57V7.369H20.624C21.1563 6.65327 21.858 6.08095 22.6661 5.70342C23.4743 5.32588 24.3635 5.15496 25.254 5.206C25.883 5.15233 26.5161 5.23669 27.1091 5.45318C27.7021 5.66966 28.2407 6.01305 28.6872 6.45934C29.1337 6.90564 29.4773 7.44406 29.694 8.03697C29.9108 8.62988 29.9954 9.26298 29.942 9.892V19.592H27.212V10.629C27.212 8.768 26.385 7.507 24.374 7.507L24.37 7.506ZM6.37 2.606H0V0H15.8V2.6H9.43V19.591H6.368L6.37 2.606Z" fill="white"/>
<path d="M66.5107 12.406H68.9377V19.591H66.5107V12.406Z" fill="#00FF00"/>
<path d="M68.9365 5.22095H71.3635V12.4059H68.9365V5.22095Z" fill="#00FF00"/>
</g>
<defs>
<clipPath id="clip0_35_186">
<rect width="88" height="20" fill="white"/>
</clipPath>
</defs>
</svg>
